<svg class="rich-terminal" viewBox="0 0 1360 1026.0" xmlns="http://www.w3.org/2000/svg">
    <!-- Generated with Rich https://www.textualize.io -->
    <style>

    @font-face {
        font-family: "Fira Code";
        src: local("FiraCode-Regular"),
                url("https://cdnjs.cloudflare.com/ajax/libs/firacode/6.2.0/woff2/FiraCode-Regular.woff2") format("woff2"),
                url("https://cdnjs.cloudflare.com/ajax/libs/firacode/6.2.0/woff/FiraCode-Regular.woff") format("woff");
        font-style: normal;
        font-weight: 400;
    }
    @font-face {
        font-family: "Fira Code";
        src: local("FiraCode-Bold"),
                url("https://cdnjs.cloudflare.com/ajax/libs/firacode/6.2.0/woff2/FiraCode-Bold.woff2") format("woff2"),
                url("https://cdnjs.cloudflare.com/ajax/libs/firacode/6.2.0/woff/FiraCode-Bold.woff") format("woff");
        font-style: bold;
        font-weight: 700;
    }

    .terminal-630786060-matrix {
        font-family: Fira Code, monospace;
        font-size: 20px;
        line-height: 24.4px;
        font-variant-east-asian: full-width;
    }

    .terminal-630786060-title {
        font-size: 18px;
        font-weight: bold;
        font-family: arial;
    }

    .terminal-630786060-r1 { fill: #c5c8c6 }
.terminal-630786060-r2 { fill: #46bcf0;font-weight: bold }
.terminal-630786060-r3 { fill: #939da7 }
.terminal-630786060-r4 { fill: #c3c3c3 }
.terminal-630786060-r5 { fill: #e6c660 }
.terminal-630786060-r6 { fill: #a5a5a5 }
    </style>

    <defs>
    <clipPath id="terminal-630786060-clip-terminal">
      <rect x="0" y="0" width="1341.0" height="975.0" />
    </clipPath>
    <clipPath id="terminal-630786060-line-0">
    <rect x="0" y="1.5" width="1342" height="24.65"/>
            </clipPath>
<clipPath id="terminal-630786060-line-1">
    <rect x="0" y="25.9" width="1342" height="24.65"/>
            </clipPath>
<clipPath id="terminal-630786060-line-2">
    <rect x="0" y="50.3" width="1342" height="24.65"/>
            </clipPath>
<clipPath id="terminal-630786060-line-3">
    <rect x="0" y="74.7" width="1342" height="24.65"/>
            </clipPath>
<clipPath id="terminal-630786060-line-4">
    <rect x="0" y="99.1" width="1342" height="24.65"/>
            </clipPath>
<clipPath id="terminal-630786060-line-5">
    <rect x="0" y="123.5" width="1342" height="24.65"/>
            </clipPath>
<clipPath id="terminal-630786060-line-6">
    <rect x="0" y="147.9" width="1342" height="24.65"/>
            </clipPath>
<clipPath id="terminal-630786060-line-7">
    <rect x="0" y="172.3" width="1342" height="24.65"/>
            </clipPath>
<clipPath id="terminal-630786060-line-8">
    <rect x="0" y="196.7" width="1342" height="24.65"/>
            </clipPath>
<clipPath id="terminal-630786060-line-9">
    <rect x="0" y="221.1" width="1342" height="24.65"/>
            </clipPath>
<clipPath id="terminal-630786060-line-10">
    <rect x="0" y="245.5" width="1342" height="24.65"/>
            </clipPath>
<clipPath id="terminal-630786060-line-11">
    <rect x="0" y="269.9" width="1342" height="24.65"/>
            </clipPath>
<clipPath id="terminal-630786060-line-12">
    <rect x="0" y="294.3" width="1342" height="24.65"/>
            </clipPath>
<clipPath id="terminal-630786060-line-13">
    <rect x="0" y="318.7" width="1342" height="24.65"/>
            </clipPath>
<clipPath id="terminal-630786060-line-14">
    <rect x="0" y="343.1" width="1342" height="24.65"/>
            </clipPath>
<clipPath id="terminal-630786060-line-15">
    <rect x="0" y="367.5" width="1342" height="24.65"/>
            </clipPath>
<clipPath id="terminal-630786060-line-16">
    <rect x="0" y="391.9" width="1342" height="24.65"/>
            </clipPath>
<clipPath id="terminal-630786060-line-17">
    <rect x="0" y="416.3" width="1342" height="24.65"/>
            </clipPath>
<clipPath id="terminal-630786060-line-18">
    <rect x="0" y="440.7" width="1342" height="24.65"/>
            </clipPath>
<clipPath id="terminal-630786060-line-19">
    <rect x="0" y="465.1" width="1342" height="24.65"/>
            </clipPath>
<clipPath id="terminal-630786060-line-20">
    <rect x="0" y="489.5" width="1342" height="24.65"/>
            </clipPath>
<clipPath id="terminal-630786060-line-21">
    <rect x="0" y="513.9" width="1342" height="24.65"/>
            </clipPath>
<clipPath id="terminal-630786060-line-22">
    <rect x="0" y="538.3" width="1342" height="24.65"/>
            </clipPath>
<clipPath id="terminal-630786060-line-23">
    <rect x="0" y="562.7" width="1342" height="24.65"/>
            </clipPath>
<clipPath id="terminal-630786060-line-24">
    <rect x="0" y="587.1" width="1342" height="24.65"/>
            </clipPath>
<clipPath id="terminal-630786060-line-25">
    <rect x="0" y="611.5" width="1342" height="24.65"/>
            </clipPath>
<clipPath id="terminal-630786060-line-26">
    <rect x="0" y="635.9" width="1342" height="24.65"/>
            </clipPath>
<clipPath id="terminal-630786060-line-27">
    <rect x="0" y="660.3" width="1342" height="24.65"/>
            </clipPath>
<clipPath id="terminal-630786060-line-28">
    <rect x="0" y="684.7" width="1342" height="24.65"/>
            </clipPath>
<clipPath id="terminal-630786060-line-29">
    <rect x="0" y="709.1" width="1342" height="24.65"/>
            </clipPath>
<clipPath id="terminal-630786060-line-30">
    <rect x="0" y="733.5" width="1342" height="24.65"/>
            </clipPath>
<clipPath id="terminal-630786060-line-31">
    <rect x="0" y="757.9" width="1342" height="24.65"/>
            </clipPath>
<clipPath id="terminal-630786060-line-32">
    <rect x="0" y="782.3" width="1342" height="24.65"/>
            </clipPath>
<clipPath id="terminal-630786060-line-33">
    <rect x="0" y="806.7" width="1342" height="24.65"/>
            </clipPath>
<clipPath id="terminal-630786060-line-34">
    <rect x="0" y="831.1" width="1342" height="24.65"/>
            </clipPath>
<clipPath id="terminal-630786060-line-35">
    <rect x="0" y="855.5" width="1342" height="24.65"/>
            </clipPath>
<clipPath id="terminal-630786060-line-36">
    <rect x="0" y="879.9" width="1342" height="24.65"/>
            </clipPath>
<clipPath id="terminal-630786060-line-37">
    <rect x="0" y="904.3" width="1342" height="24.65"/>
            </clipPath>
<clipPath id="terminal-630786060-line-38">
    <rect x="0" y="928.7" width="1342" height="24.65"/>
            </clipPath>
    </defs>

    <rect fill="#292929" stroke="rgba(255,255,255,0.35)" stroke-width="1" x="1" y="1" width="1358" height="1024" rx="8"/>
            <g transform="translate(26,22)">
            <circle cx="0" cy="0" r="7" fill="#ff5f57"/>
            <circle cx="22" cy="0" r="7" fill="#febc2e"/>
            <circle cx="44" cy="0" r="7" fill="#28c840"/>
            </g>
        
    <g transform="translate(9, 41)" clip-path="url(#terminal-630786060-clip-terminal)">
    <rect fill="#2a313a" x="0" y="1.5" width="12.2" height="24.65" shape-rendering="crispEdges"/><rect fill="#2a313a" x="12.2" y="1.5" width="109.8" height="24.65" shape-rendering="crispEdges"/><rect fill="#2a313a" x="122" y="1.5" width="36.6" height="24.65" shape-rendering="crispEdges"/><rect fill="#2a313a" x="158.6" y="1.5" width="73.2" height="24.65" shape-rendering="crispEdges"/><rect fill="#2a313a" x="231.8" y="1.5" width="854" height="24.65" shape-rendering="crispEdges"/><rect fill="#2a313a" x="1085.8" y="1.5" width="12.2" height="24.65" shape-rendering="crispEdges"/><rect fill="#2a313a" x="1098" y="1.5" width="12.2" height="24.65" shape-rendering="crispEdges"/><rect fill="#2a313a" x="1110.2" y="1.5" width="219.6" height="24.65" shape-rendering="crispEdges"/><rect fill="#2a313a" x="1329.8" y="1.5" width="12.2" height="24.65" shape-rendering="crispEdges"/><rect fill="#1a1f25" x="0" y="25.9" width="1342" height="24.65" shape-rendering="crispEdges"/><rect fill="#1a1f25" x="0" y="50.3" width="12.2" height="24.65" shape-rendering="crispEdges"/><rect fill="#1a1f25" x="12.2" y="50.3" width="12.2" height="24.65" shape-rendering="crispEdges"/><rect fill="#1a1f25" x="24.4" y="50.3" width="524.6" height="24.65" shape-rendering="crispEdges"/><rect fill="#1a1f25" x="549" y="50.3" width="122" height="24.65" shape-rendering="crispEdges"/><rect fill="#1a1f25" x="671" y="50.3" width="24.4" height="24.65" shape-rendering="crispEdges"/><rect fill="#1a1f25" x="695.4" y="50.3" width="109.8" height="24.65" shape-rendering="crispEdges"/><rect fill="#1a1f25" x="805.2" y="50.3" width="512.4" height="24.65" shape-rendering="crispEdges"/><rect fill="#1a1f25" x="1317.6" y="50.3" width="24.4" height="24.65" shape-rendering="crispEdges"/><rect fill="#1a1f25" x="0" y="74.7" width="12.2" height="24.65" shape-rendering="crispEdges"/><rect fill="#22282f" x="12.2" y="74.7" width="12.2" height="24.65" shape-rendering="crispEdges"/><rect fill="#22282f" x="24.4" y="74.7" width="536.8" height="24.65" shape-rendering="crispEdges"/><rect fill="#22282f" x="561.2" y="74.7" width="109.8" height="24.65" shape-rendering="crispEdges"/><rect fill="#22282f" x="671" y="74.7" width="24.4" height="24.65" shape-rendering="crispEdges"/><rect fill="#22282f" x="695.4" y="74.7" width="109.8" height="24.65" shape-rendering="crispEdges"/><rect fill="#22282f" x="805.2" y="74.7" width="512.4" height="24.65" shape-rendering="crispEdges"/><rect fill="#1a1f25" x="1317.6" y="74.7" width="24.4" height="24.65" shape-rendering="crispEdges"/><rect fill="#1a1f25" x="0" y="99.1" width="12.2" height="24.65" shape-rendering="crispEdges"/><rect fill="#1a1f25" x="12.2" y="99.1" width="12.2" height="24.65" shape-rendering="crispEdges"/><rect fill="#1a1f25" x="24.4" y="99.1" width="610" height="24.65" shape-rendering="crispEdges"/><rect fill="#1a1f25" x="634.4" y="99.1" width="36.6" height="24.65" shape-rendering="crispEdges"/><rect fill="#1a1f25" x="671" y="99.1" width="24.4" height="24.65" shape-rendering="crispEdges"/><rect fill="#1a1f25" x="695.4" y="99.1" width="109.8" height="24.65" shape-rendering="crispEdges"/><rect fill="#1a1f25" x="805.2" y="99.1" width="512.4" height="24.65" shape-rendering="crispEdges"/><rect fill="#1a1f25" x="1317.6" y="99.1" width="24.4" height="24.65" shape-rendering="crispEdges"/><rect fill="#1a1f25" x="0" y="123.5" width="12.2" height="24.65" shape-rendering="crispEdges"/><rect fill="#1a1f25" x="12.2" y="123.5" width="12.2" height="24.65" shape-rendering="crispEdges"/><rect fill="#1a1f25" x="24.4" y="123.5" width="219.6" height="24.65" shape-rendering="crispEdges"/><rect fill="#1a1f25" x="244" y="123.5" width="427" height="24.65" shape-rendering="crispEdges"/><rect fill="#1a1f25" x="671" y="123.5" width="24.4" height="24.65" shape-rendering="crispEdges"/><rect fill="#1a1f25" x="695.4" y="123.5" width="622.2" height="24.65" shape-rendering="crispEdges"/><rect fill="#1a1f25" x="1317.6" y="123.5" width="24.4" height="24.65" shape-rendering="crispEdges"/><rect fill="#1a1f25" x="0" y="147.9" width="12.2" height="24.65" shape-rendering="crispEdges"/><rect fill="#22282f" x="12.2" y="147.9" width="12.2" height="24.65" shape-rendering="crispEdges"/><rect fill="#22282f" x="24.4" y="147.9" width="475.8" height="24.65" shape-rendering="crispEdges"/><rect fill="#22282f" x="500.2" y="147.9" width="170.8" height="24.65" shape-rendering="crispEdges"/><rect fill="#22282f" x="671" y="147.9" width="24.4" height="24.65" shape-rendering="crispEdges"/><rect fill="#22282f" x="695.4" y="147.9" width="73.2" height="24.65" shape-rendering="crispEdges"/><rect fill="#22282f" x="768.6" y="147.9" width="549" height="24.65" shape-rendering="crispEdges"/><rect fill="#1a1f25" x="1317.6" y="147.9" width="24.4" height="24.65" shape-rendering="crispEdges"/><rect fill="#1a1f25" x="0" y="172.3" width="12.2" height="24.65" shape-rendering="crispEdges"/><rect fill="#1a1f25" x="12.2" y="172.3" width="12.2" height="24.65" shape-rendering="crispEdges"/><rect fill="#1a1f25" x="24.4" y="172.3" width="585.6" height="24.65" shape-rendering="crispEdges"/><rect fill="#1a1f25" x="610" y="172.3" width="61" height="24.65" shape-rendering="crispEdges"/><rect fill="#1a1f25" x="671" y="172.3" width="24.4" height="24.65" shape-rendering="crispEdges"/><rect fill="#1a1f25" x="695.4" y="172.3" width="451.4" height="24.65" shape-rendering="crispEdges"/><rect fill="#1a1f25" x="1146.8" y="172.3" width="170.8" height="24.65" shape-rendering="crispEdges"/><rect fill="#1a1f25" x="1317.6" y="172.3" width="24.4" height="24.65" shape-rendering="crispEdges"/><rect fill="#1a1f25" x="0" y="196.7" width="12.2" height="24.65" shape-rendering="crispEdges"/><rect fill="#1a1f25" x="12.2" y="196.7" width="12.2" height="24.65" shape-rendering="crispEdges"/><rect fill="#1a1f25" x="24.4" y="196.7" width="317.2" height="24.65" shape-rendering="crispEdges"/><rect fill="#1a1f25" x="341.6" y="196.7" width="329.4" height="24.65" shape-rendering="crispEdges"/><rect fill="#1a1f25" x="671" y="196.7" width="24.4" height="24.65" shape-rendering="crispEdges"/><rect fill="#1a1f25" x="695.4" y="196.7" width="622.2" height="24.65" shape-rendering="crispEdges"/><rect fill="#1a1f25" x="1317.6" y="196.7" width="24.4" height="24.65" shape-rendering="crispEdges"/><rect fill="#1a1f25" x="0" y="221.1" width="12.2" height="24.65" shape-rendering="crispEdges"/><rect fill="#22282f" x="12.2" y="221.1" width="12.2" height="24.65" shape-rendering="crispEdges"/><rect fill="#22282f" x="24.4" y="221.1" width="170.8" height="24.65" shape-rendering="crispEdges"/><rect fill="#22282f" x="195.2" y="221.1" width="475.8" height="24.65" shape-rendering="crispEdges"/><rect fill="#22282f" x="671" y="221.1" width="24.4" height="24.65" shape-rendering="crispEdges"/><rect fill="#22282f" x="695.4" y="221.1" width="61" height="24.65" shape-rendering="crispEdges"/><rect fill="#22282f" x="756.4" y="221.1" width="561.2" height="24.65" shape-rendering="crispEdges"/><rect fill="#1a1f25" x="1317.6" y="221.1" width="24.4" height="24.65" shape-rendering="crispEdges"/><rect fill="#1a1f25" x="0" y="245.5" width="12.2" height="24.65" shape-rendering="crispEdges"/><rect fill="#1a1f25" x="12.2" y="245.5" width="12.2" height="24.65" shape-rendering="crispEdges"/><rect fill="#1a1f25" x="24.4" y="245.5" width="390.4" height="24.65" shape-rendering="crispEdges"/><rect fill="#1a1f25" x="414.8" y="245.5" width="256.2" height="24.65" shape-rendering="crispEdges"/><rect fill="#1a1f25" x="671" y="245.5" width="24.4" height="24.65" shape-rendering="crispEdges"/><rect fill="#1a1f25" x="695.4" y="245.5" width="48.8" height="24.65" shape-rendering="crispEdges"/><rect fill="#1a1f25" x="744.2" y="245.5" width="573.4" height="24.65" shape-rendering="crispEdges"/><rect fill="#1a1f25" x="1317.6" y="245.5" width="24.4" height="24.65" shape-rendering="crispEdges"/><rect fill="#1a1f25" x="0" y="269.9" width="12.2" height="24.65" shape-rendering="crispEdges"/><rect fill="#22282f" x="12.2" y="269.9" width="12.2" height="24.65" shape-rendering="crispEdges"/><rect fill="#22282f" x="24.4" y="269.9" width="500.2" height="24.65" shape-rendering="crispEdges"/><rect fill="#22282f" x="524.6" y="269.9" width="146.4" height="24.65" shape-rendering="crispEdges"/><rect fill="#22282f" x="671" y="269.9" width="24.4" height="24.65" shape-rendering="crispEdges"/><rect fill="#22282f" x="695.4" y="269.9" width="48.8" height="24.65" shape-rendering="crispEdges"/><rect fill="#22282f" x="744.2" y="269.9" width="573.4" height="24.65" shape-rendering="crispEdges"/><rect fill="#1a1f25" x="1317.6" y="269.9" width="24.4" height="24.65" shape-rendering="crispEdges"/><rect fill="#1a1f25" x="0" y="294.3" width="12.2" height="24.65" shape-rendering="crispEdges"/><rect fill="#1a1f25" x="12.2" y="294.3" width="12.2" height="24.65" shape-rendering="crispEdges"/><rect fill="#1a1f25" x="24.4" y="294.3" width="317.2" height="24.65" shape-rendering="crispEdges"/><rect fill="#1a1f25" x="341.6" y="294.3" width="329.4" height="24.65" shape-rendering="crispEdges"/><rect fill="#1a1f25" x="671" y="294.3" width="24.4" height="24.65" shape-rendering="crispEdges"/><rect fill="#1a1f25" x="695.4" y="294.3" width="24.4" height="24.65" shape-rendering="crispEdges"/><rect fill="#1a1f25" x="719.8" y="294.3" width="597.8" height="24.65" shape-rendering="crispEdges"/><rect fill="#1a1f25" x="1317.6" y="294.3" width="24.4" height="24.65" shape-rendering="crispEdges"/><rect fill="#1a1f25" x="0" y="318.7" width="12.2" height="24.65" shape-rendering="crispEdges"/><rect fill="#22282f" x="12.2" y="318.7" width="12.2" height="24.65" shape-rendering="crispEdges"/><rect fill="#22282f" x="24.4" y="318.7" width="366" height="24.65" shape-rendering="crispEdges"/><rect fill="#22282f" x="390.4" y="318.7" width="280.6" height="24.65" shape-rendering="crispEdges"/><rect fill="#22282f" x="671" y="318.7" width="24.4" height="24.65" shape-rendering="crispEdges"/><rect fill="#22282f" x="695.4" y="318.7" width="170.8" height="24.65" shape-rendering="crispEdges"/><rect fill="#22282f" x="866.2" y="318.7" width="451.4" height="24.65" shape-rendering="crispEdges"/><rect fill="#1a1f25" x="1317.6" y="318.7" width="24.4" height="24.65" shape-rendering="crispEdges"/><rect fill="#1a1f25" x="0" y="343.1" width="12.2" height="24.65" shape-rendering="crispEdges"/><rect fill="#1a1f25" x="12.2" y="343.1" width="12.2" height="24.65" shape-rendering="crispEdges"/><rect fill="#1a1f25" x="24.4" y="343.1" width="549" height="24.65" shape-rendering="crispEdges"/><rect fill="#1a1f25" x="573.4" y="343.1" width="97.6" height="24.65" shape-rendering="crispEdges"/><rect fill="#1a1f25" x="671" y="343.1" width="24.4" height="24.65" shape-rendering="crispEdges"/><rect fill="#1a1f25" x="695.4" y="343.1" width="48.8" height="24.65" shape-rendering="crispEdges"/><rect fill="#1a1f25" x="744.2" y="343.1" width="573.4" height="24.65" shape-rendering="crispEdges"/><rect fill="#1a1f25" x="1317.6" y="343.1" width="24.4" height="24.65" shape-rendering="crispEdges"/><rect fill="#1a1f25" x="0" y="367.5" width="12.2" height="24.65" shape-rendering="crispEdges"/><rect fill="#1a1f25" x="12.2" y="367.5" width="12.2" height="24.65" shape-rendering="crispEdges"/><rect fill="#1a1f25" x="24.4" y="367.5" width="305" height="24.65" shape-rendering="crispEdges"/><rect fill="#1a1f25" x="329.4" y="367.5" width="341.6" height="24.65" shape-rendering="crispEdges"/><rect fill="#1a1f25" x="671" y="367.5" width="24.4" height="24.65" shape-rendering="crispEdges"/><rect fill="#1a1f25" x="695.4" y="367.5" width="622.2" height="24.65" shape-rendering="crispEdges"/><rect fill="#1a1f25" x="1317.6" y="367.5" width="24.4" height="24.65" shape-rendering="crispEdges"/><rect fill="#1a1f25" x="0" y="391.9" width="12.2" height="24.65" shape-rendering="crispEdges"/><rect fill="#22282f" x="12.2" y="391.9" width="12.2" height="24.65" shape-rendering="crispEdges"/><rect fill="#22282f" x="24.4" y="391.9" width="207.4" height="24.65" shape-rendering="crispEdges"/><rect fill="#22282f" x="231.8" y="391.9" width="439.2" height="24.65" shape-rendering="crispEdges"/><rect fill="#22282f" x="671" y="391.9" width="24.4" height="24.65" shape-rendering="crispEdges"/><rect fill="#22282f" x="695.4" y="391.9" width="73.2" height="24.65" shape-rendering="crispEdges"/><rect fill="#22282f" x="768.6" y="391.9" width="549" height="24.65" shape-rendering="crispEdges"/><rect fill="#1a1f25" x="1317.6" y="391.9" width="24.4" height="24.65" shape-rendering="crispEdges"/><rect fill="#1a1f25" x="0" y="416.3" width="12.2" height="24.65" shape-rendering="crispEdges"/><rect fill="#1a1f25" x="12.2" y="416.3" width="12.2" height="24.65" shape-rendering="crispEdges"/><rect fill="#1a1f25" x="24.4" y="416.3" width="341.6" height="24.65" shape-rendering="crispEdges"/><rect fill="#1a1f25" x="366" y="416.3" width="305" height="24.65" shape-rendering="crispEdges"/><rect fill="#1a1f25" x="671" y="416.3" width="24.4" height="24.65" shape-rendering="crispEdges"/><rect fill="#1a1f25" x="695.4" y="416.3" width="48.8" height="24.65" shape-rendering="crispEdges"/><rect fill="#1a1f25" x="744.2" y="416.3" width="573.4" height="24.65" shape-rendering="crispEdges"/><rect fill="#1a1f25" x="1317.6" y="416.3" width="24.4" height="24.65" shape-rendering="crispEdges"/><rect fill="#1a1f25" x="0" y="440.7" width="12.2" height="24.65" shape-rendering="crispEdges"/><rect fill="#22282f" x="12.2" y="440.7" width="12.2" height="24.65" shape-rendering="crispEdges"/><rect fill="#22282f" x="24.4" y="440.7" width="231.8" height="24.65" shape-rendering="crispEdges"/><rect fill="#22282f" x="256.2" y="440.7" width="414.8" height="24.65" shape-rendering="crispEdges"/><rect fill="#22282f" x="671" y="440.7" width="24.4" height="24.65" shape-rendering="crispEdges"/><rect fill="#22282f" x="695.4" y="440.7" width="36.6" height="24.65" shape-rendering="crispEdges"/><rect fill="#22282f" x="732" y="440.7" width="585.6" height="24.65" shape-rendering="crispEdges"/><rect fill="#1a1f25" x="1317.6" y="440.7" width="24.4" height="24.65" shape-rendering="crispEdges"/><rect fill="#1a1f25" x="0" y="465.1" width="12.2" height="24.65" shape-rendering="crispEdges"/><rect fill="#1a1f25" x="12.2" y="465.1" width="12.2" height="24.65" shape-rendering="crispEdges"/><rect fill="#1a1f25" x="24.4" y="465.1" width="280.6" height="24.65" shape-rendering="crispEdges"/><rect fill="#1a1f25" x="305" y="465.1" width="366" height="24.65" shape-rendering="crispEdges"/><rect fill="#1a1f25" x="671" y="465.1" width="24.4" height="24.65" shape-rendering="crispEdges"/><rect fill="#1a1f25" x="695.4" y="465.1" width="48.8" height="24.65" shape-rendering="crispEdges"/><rect fill="#1a1f25" x="744.2" y="465.1" width="573.4" height="24.65" shape-rendering="crispEdges"/><rect fill="#1a1f25" x="1317.6" y="465.1" width="24.4" height="24.65" shape-rendering="crispEdges"/><rect fill="#1a1f25" x="0" y="489.5" width="12.2" height="24.65" shape-rendering="crispEdges"/><rect fill="#22282f" x="12.2" y="489.5" width="12.2" height="24.65" shape-rendering="crispEdges"/><rect fill="#22282f" x="24.4" y="489.5" width="622.2" height="24.65" shape-rendering="crispEdges"/><rect fill="#22282f" x="646.6" y="489.5" width="24.4" height="24.65" shape-rendering="crispEdges"/><rect fill="#22282f" x="671" y="489.5" width="24.4" height="24.65" shape-rendering="crispEdges"/><rect fill="#22282f" x="695.4" y="489.5" width="36.6" height="24.65" shape-rendering="crispEdges"/><rect fill="#22282f" x="732" y="489.5" width="585.6" height="24.65" shape-rendering="crispEdges"/><rect fill="#1a1f25" x="1317.6" y="489.5" width="24.4" height="24.65" shape-rendering="crispEdges"/><rect fill="#1a1f25" x="0" y="513.9" width="12.2" height="24.65" shape-rendering="crispEdges"/><rect fill="#1a1f25" x="12.2" y="513.9" width="12.2" height="24.65" shape-rendering="crispEdges"/><rect fill="#1a1f25" x="24.4" y="513.9" width="585.6" height="24.65" shape-rendering="crispEdges"/><rect fill="#1a1f25" x="610" y="513.9" width="61" height="24.65" shape-rendering="crispEdges"/><rect fill="#1a1f25" x="671" y="513.9" width="24.4" height="24.65" shape-rendering="crispEdges"/><rect fill="#1a1f25" x="695.4" y="513.9" width="36.6" height="24.65" shape-rendering="crispEdges"/><rect fill="#1a1f25" x="732" y="513.9" width="585.6" height="24.65" shape-rendering="crispEdges"/><rect fill="#1a1f25" x="1317.6" y="513.9" width="24.4" height="24.65" shape-rendering="crispEdges"/><rect fill="#1a1f25" x="0" y="538.3" width="12.2" height="24.65" shape-rendering="crispEdges"/><rect fill="#22282f" x="12.2" y="538.3" width="12.2" height="24.65" shape-rendering="crispEdges"/><rect fill="#22282f" x="24.4" y="538.3" width="622.2" height="24.65" shape-rendering="crispEdges"/><rect fill="#22282f" x="646.6" y="538.3" width="24.4" height="24.65" shape-rendering="crispEdges"/><rect fill="#22282f" x="671" y="538.3" width="24.4" height="24.65" shape-rendering="crispEdges"/><rect fill="#22282f" x="695.4" y="538.3" width="24.4" height="24.65" shape-rendering="crispEdges"/><rect fill="#22282f" x="719.8" y="538.3" width="597.8" height="24.65" shape-rendering="crispEdges"/><rect fill="#1a1f25" x="1317.6" y="538.3" width="24.4" height="24.65" shape-rendering="crispEdges"/><rect fill="#1a1f25" x="0" y="562.7" width="12.2" height="24.65" shape-rendering="crispEdges"/><rect fill="#22282f" x="12.2" y="562.7" width="12.2" height="24.65" shape-rendering="crispEdges"/><rect fill="#22282f" x="24.4" y="562.7" width="85.4" height="24.65" shape-rendering="crispEdges"/><rect fill="#22282f" x="109.8" y="562.7" width="561.2" height="24.65" shape-rendering="crispEdges"/><rect fill="#22282f" x="671" y="562.7" width="24.4" height="24.65" shape-rendering="crispEdges"/><rect fill="#22282f" x="695.4" y="562.7" width="622.2" height="24.65" shape-rendering="crispEdges"/><rect fill="#1a1f25" x="1317.6" y="562.7" width="24.4" height="24.65" shape-rendering="crispEdges"/><rect fill="#1a1f25" x="0" y="587.1" width="12.2" height="24.65" shape-rendering="crispEdges"/><rect fill="#1a1f25" x="12.2" y="587.1" width="12.2" height="24.65" shape-rendering="crispEdges"/><rect fill="#1a1f25" x="24.4" y="587.1" width="585.6" height="24.65" shape-rendering="crispEdges"/><rect fill="#1a1f25" x="610" y="587.1" width="61" height="24.65" shape-rendering="crispEdges"/><rect fill="#1a1f25" x="671" y="587.1" width="24.4" height="24.65" shape-rendering="crispEdges"/><rect fill="#1a1f25" x="695.4" y="587.1" width="24.4" height="24.65" shape-rendering="crispEdges"/><rect fill="#1a1f25" x="719.8" y="587.1" width="597.8" height="24.65" shape-rendering="crispEdges"/><rect fill="#1a1f25" x="1317.6" y="587.1" width="24.4" height="24.65" shape-rendering="crispEdges"/><rect fill="#1a1f25" x="0" y="611.5" width="12.2" height="24.65" shape-rendering="crispEdges"/><rect fill="#22282f" x="12.2" y="611.5" width="12.2" height="24.65" shape-rendering="crispEdges"/><rect fill="#22282f" x="24.4" y="611.5" width="634.4" height="24.65" shape-rendering="crispEdges"/><rect fill="#22282f" x="658.8" y="611.5" width="12.2" height="24.65" shape-rendering="crispEdges"/><rect fill="#22282f" x="671" y="611.5" width="24.4" height="24.65" shape-rendering="crispEdges"/><rect fill="#22282f" x="695.4" y="611.5" width="48.8" height="24.65" shape-rendering="crispEdges"/><rect fill="#22282f" x="744.2" y="611.5" width="573.4" height="24.65" shape-rendering="crispEdges"/><rect fill="#1a1f25" x="1317.6" y="611.5" width="24.4" height="24.65" shape-rendering="crispEdges"/><rect fill="#1a1f25" x="0" y="635.9" width="12.2" height="24.65" shape-rendering="crispEdges"/><rect fill="#22282f" x="12.2" y="635.9" width="12.2" height="24.65" shape-rendering="crispEdges"/><rect fill="#22282f" x="24.4" y="635.9" width="305" height="24.65" shape-rendering="crispEdges"/><rect fill="#22282f" x="329.4" y="635.9" width="341.6" height="24.65" shape-rendering="crispEdges"/><rect fill="#22282f" x="671" y="635.9" width="24.4" height="24.65" shape-rendering="crispEdges"/><rect fill="#22282f" x="695.4" y="635.9" width="622.2" height="24.65" shape-rendering="crispEdges"/><rect fill="#1a1f25" x="1317.6" y="635.9" width="24.4" height="24.65" shape-rendering="crispEdges"/><rect fill="#1a1f25" x="0" y="660.3" width="12.2" height="24.65" shape-rendering="crispEdges"/><rect fill="#1a1f25" x="12.2" y="660.3" width="12.2" height="24.65" shape-rendering="crispEdges"/><rect fill="#1a1f25" x="24.4" y="660.3" width="597.8" height="24.65" shape-rendering="crispEdges"/><rect fill="#1a1f25" x="622.2" y="660.3" width="48.8" height="24.65" shape-rendering="crispEdges"/><rect fill="#1a1f25" x="671" y="660.3" width="24.4" height="24.65" shape-rendering="crispEdges"/><rect fill="#1a1f25" x="695.4" y="660.3" width="24.4" height="24.65" shape-rendering="crispEdges"/><rect fill="#1a1f25" x="719.8" y="660.3" width="597.8" height="24.65" shape-rendering="crispEdges"/><rect fill="#1a1f25" x="1317.6" y="660.3" width="24.4" height="24.65" shape-rendering="crispEdges"/><rect fill="#1a1f25" x="0" y="684.7" width="12.2" height="24.65" shape-rendering="crispEdges"/><rect fill="#1a1f25" x="12.2" y="684.7" width="12.2" height="24.65" shape-rendering="crispEdges"/><rect fill="#1a1f25" x="24.4" y="684.7" width="463.6" height="24.65" shape-rendering="crispEdges"/><rect fill="#1a1f25" x="488" y="684.7" width="183" height="24.65" shape-rendering="crispEdges"/><rect fill="#1a1f25" x="671" y="684.7" width="24.4" height="24.65" shape-rendering="crispEdges"/><rect fill="#1a1f25" x="695.4" y="684.7" width="622.2" height="24.65" shape-rendering="crispEdges"/><rect fill="#1a1f25" x="1317.6" y="684.7" width="24.4" height="24.65" shape-rendering="crispEdges"/><rect fill="#1a1f25" x="0" y="709.1" width="12.2" height="24.65" shape-rendering="crispEdges"/><rect fill="#22282f" x="12.2" y="709.1" width="12.2" height="24.65" shape-rendering="crispEdges"/><rect fill="#22282f" x="24.4" y="709.1" width="585.6" height="24.65" shape-rendering="crispEdges"/><rect fill="#22282f" x="610" y="709.1" width="61" height="24.65" shape-rendering="crispEdges"/><rect fill="#22282f" x="671" y="709.1" width="24.4" height="24.65" shape-rendering="crispEdges"/><rect fill="#22282f" x="695.4" y="709.1" width="24.4" height="24.65" shape-rendering="crispEdges"/><rect fill="#22282f" x="719.8" y="709.1" width="597.8" height="24.65" shape-rendering="crispEdges"/><rect fill="#1a1f25" x="1317.6" y="709.1" width="24.4" height="24.65" shape-rendering="crispEdges"/><rect fill="#1a1f25" x="0" y="733.5" width="12.2" height="24.65" shape-rendering="crispEdges"/><rect fill="#22282f" x="12.2" y="733.5" width="12.2" height="24.65" shape-rendering="crispEdges"/><rect fill="#22282f" x="24.4" y="733.5" width="158.6" height="24.65" shape-rendering="crispEdges"/><rect fill="#22282f" x="183" y="733.5" width="488" height="24.65" shape-rendering="crispEdges"/><rect fill="#22282f" x="671" y="733.5" width="24.4" height="24.65" shape-rendering="crispEdges"/><rect fill="#22282f" x="695.4" y="733.5" width="622.2" height="24.65" shape-rendering="crispEdges"/><rect fill="#1a1f25" x="1317.6" y="733.5" width="24.4" height="24.65" shape-rendering="crispEdges"/><rect fill="#1a1f25" x="0" y="757.9" width="12.2" height="24.65" shape-rendering="crispEdges"/><rect fill="#1a1f25" x="12.2" y="757.9" width="12.2" height="24.65" shape-rendering="crispEdges"/><rect fill="#1a1f25" x="24.4" y="757.9" width="512.4" height="24.65" shape-rendering="crispEdges"/><rect fill="#1a1f25" x="536.8" y="757.9" width="134.2" height="24.65" shape-rendering="crispEdges"/><rect fill="#1a1f25" x="671" y="757.9" width="24.4" height="24.65" shape-rendering="crispEdges"/><rect fill="#1a1f25" x="695.4" y="757.9" width="36.6" height="24.65" shape-rendering="crispEdges"/><rect fill="#1a1f25" x="732" y="757.9" width="585.6" height="24.65" shape-rendering="crispEdges"/><rect fill="#1a1f25" x="1317.6" y="757.9" width="24.4" height="24.65" shape-rendering="crispEdges"/><rect fill="#1a1f25" x="0" y="782.3" width="12.2" height="24.65" shape-rendering="crispEdges"/><rect fill="#22282f" x="12.2" y="782.3" width="12.2" height="24.65" shape-rendering="crispEdges"/><rect fill="#22282f" x="24.4" y="782.3" width="488" height="24.65" shape-rendering="crispEdges"/><rect fill="#22282f" x="512.4" y="782.3" width="158.6" height="24.65" shape-rendering="crispEdges"/><rect fill="#22282f" x="671" y="782.3" width="24.4" height="24.65" shape-rendering="crispEdges"/><rect fill="#22282f" x="695.4" y="782.3" width="85.4" height="24.65" shape-rendering="crispEdges"/><rect fill="#22282f" x="780.8" y="782.3" width="536.8" height="24.65" shape-rendering="crispEdges"/><rect fill="#1a1f25" x="1317.6" y="782.3" width="24.4" height="24.65" shape-rendering="crispEdges"/><rect fill="#1a1f25" x="0" y="806.7" width="12.2" height="24.65" shape-rendering="crispEdges"/><rect fill="#1a1f25" x="12.2" y="806.7" width="1305.4" height="24.65" shape-rendering="crispEdges"/><rect fill="#1a1f25" x="1317.6" y="806.7" width="24.4" height="24.65" shape-rendering="crispEdges"/><rect fill="#1a1f25" x="0" y="831.1" width="12.2" height="24.65" shape-rendering="crispEdges"/><rect fill="#1a1f25" x="12.2" y="831.1" width="1305.4" height="24.65" shape-rendering="crispEdges"/><rect fill="#1a1f25" x="1317.6" y="831.1" width="24.4" height="24.65" shape-rendering="crispEdges"/><rect fill="#1a1f25" x="0" y="855.5" width="12.2" height="24.65" shape-rendering="crispEdges"/><rect fill="#1a1f25" x="12.2" y="855.5" width="1305.4" height="24.65" shape-rendering="crispEdges"/><rect fill="#1a1f25" x="1317.6" y="855.5" width="24.4" height="24.65" shape-rendering="crispEdges"/><rect fill="#1a1f25" x="0" y="879.9" width="12.2" height="24.65" shape-rendering="crispEdges"/><rect fill="#1a1f25" x="12.2" y="879.9" width="1305.4" height="24.65" shape-rendering="crispEdges"/><rect fill="#1a1f25" x="1317.6" y="879.9" width="24.4" height="24.65" shape-rendering="crispEdges"/><rect fill="#1a1f25" x="0" y="904.3" width="12.2" height="24.65" shape-rendering="crispEdges"/><rect fill="#1a1f25" x="12.2" y="904.3" width="1305.4" height="24.65" shape-rendering="crispEdges"/><rect fill="#1a1f25" x="1317.6" y="904.3" width="24.4" height="24.65" shape-rendering="crispEdges"/><rect fill="#1a1f25" x="0" y="928.7" width="12.2" height="24.65" shape-rendering="crispEdges"/><rect fill="#1a1f25" x="12.2" y="928.7" width="0" height="24.65" shape-rendering="crispEdges"/><rect fill="#1a1f25" x="12.2" y="928.7" width="1317.6" height="24.65" shape-rendering="crispEdges"/><rect fill="#1a1f25" x="1329.8" y="928.7" width="12.2" height="24.65" shape-rendering="crispEdges"/><rect fill="#2a313a" x="0" y="953.1" width="36.6" height="24.65" shape-rendering="crispEdges"/><rect fill="#2a313a" x="36.6" y="953.1" width="85.4" height="24.65" shape-rendering="crispEdges"/><rect fill="#2a313a" x="122" y="953.1" width="61" height="24.65" shape-rendering="crispEdges"/><rect fill="#2a313a" x="183" y="953.1" width="61" height="24.65" shape-rendering="crispEdges"/><rect fill="#2a313a" x="244" y="953.1" width="48.8" height="24.65" shape-rendering="crispEdges"/><rect fill="#2a313a" x="292.8" y="953.1" width="61" height="24.65" shape-rendering="crispEdges"/><rect fill="#2a313a" x="353.8" y="953.1" width="988.2" height="24.65" shape-rendering="crispEdges"/>
    <g class="terminal-630786060-matrix">
    <text class="terminal-630786060-r2" x="12.2" y="20" textLength="109.8" clip-path="url(#terminal-630786060-line-0)">demo-proj</text><text class="terminal-630786060-r3" x="122" y="20" textLength="36.6" clip-path="url(#terminal-630786060-line-0)">&#160;⸱&#160;</text><text class="terminal-630786060-r4" x="158.6" y="20" textLength="73.2" clip-path="url(#terminal-630786060-line-0)">review</text><text class="terminal-630786060-r3" x="1110.2" y="20" textLength="219.6" clip-path="url(#terminal-630786060-line-0)">copier-tui&#160;v1.0.21</text><text class="terminal-630786060-r1" x="1342" y="20" textLength="12.2" clip-path="url(#terminal-630786060-line-0)">
</text><text class="terminal-630786060-r1" x="1342" y="44.4" textLength="12.2" clip-path="url(#terminal-630786060-line-1)">
</text><text class="terminal-630786060-r2" x="24.4" y="68.8" textLength="524.6" clip-path="url(#terminal-630786060-line-2)">Repository&#160;name&#160;(derived&#160;from&#160;project&#160;name)</text><text class="terminal-630786060-r4" x="695.4" y="68.8" textLength="109.8" clip-path="url(#terminal-630786060-line-2)">demo-proj</text><text class="terminal-630786060-r1" x="1342" y="68.8" textLength="12.2" clip-path="url(#terminal-630786060-line-2)">
</text><text class="terminal-630786060-r2" x="24.4" y="93.2" textLength="536.8" clip-path="url(#terminal-630786060-line-3)">Environment&#160;name&#160;(derived&#160;from&#160;project&#160;name)</text><text class="terminal-630786060-r4" x="695.4" y="93.2" textLength="109.8" clip-path="url(#terminal-630786060-line-3)">demo-proj</text><text class="terminal-630786060-r1" x="1342" y="93.2" textLength="12.2" clip-path="url(#terminal-630786060-line-3)">
</text><text class="terminal-630786060-r2" x="24.4" y="117.6" textLength="610" clip-path="url(#terminal-630786060-line-4)">Python&#160;module&#160;name&#160;(optionally&#160;add&#160;lib_&#160;prefix&#160;for</text><text class="terminal-630786060-r4" x="695.4" y="117.6" textLength="109.8" clip-path="url(#terminal-630786060-line-4)">demo_proj</text><text class="terminal-630786060-r1" x="1342" y="117.6" textLength="12.2" clip-path="url(#terminal-630786060-line-4)">
</text><text class="terminal-630786060-r2" x="24.4" y="142" textLength="219.6" clip-path="url(#terminal-630786060-line-5)">namespace&#160;clarity)</text><text class="terminal-630786060-r1" x="1342" y="142" textLength="12.2" clip-path="url(#terminal-630786060-line-5)">
</text><text class="terminal-630786060-r2" x="24.4" y="166.4" textLength="475.8" clip-path="url(#terminal-630786060-line-6)">Author&#160;name&#160;(e.g.,&#160;John&#160;Doe,&#160;Acme&#160;Corp)</text><text class="terminal-630786060-r4" x="695.4" y="166.4" textLength="73.2" clip-path="url(#terminal-630786060-line-6)">AcmeCo</text><text class="terminal-630786060-r1" x="1342" y="166.4" textLength="12.2" clip-path="url(#terminal-630786060-line-6)">
</text><text class="terminal-630786060-r2" x="24.4" y="190.8" textLength="585.6" clip-path="url(#terminal-630786060-line-7)">Brief&#160;project&#160;description&#160;(e.g.,&#160;ML&#160;pipeline&#160;for</text><text class="terminal-630786060-r4" x="695.4" y="190.8" textLength="451.4" clip-path="url(#terminal-630786060-line-7)">A&#160;demo&#160;project&#160;rendered&#160;by&#160;copier-tui</text><text class="terminal-630786060-r1" x="1342" y="190.8" textLength="12.2" clip-path="url(#terminal-630786060-line-7)">
</text><text class="terminal-630786060-r2" x="24.4" y="215.2" textLength="317.2" clip-path="url(#terminal-630786060-line-8)">customer&#160;churn&#160;prediction)</text><text class="terminal-630786060-r1" x="1342" y="215.2" textLength="12.2" clip-path="url(#terminal-630786060-line-8)">
</text><text class="terminal-630786060-r2" x="24.4" y="239.6" textLength="170.8" clip-path="url(#terminal-630786060-line-9)">Python&#160;version</text><text class="terminal-630786060-r4" x="695.4" y="239.6" textLength="61" clip-path="url(#terminal-630786060-line-9)">other</text><text class="terminal-630786060-r1" x="1342" y="239.6" textLength="12.2" clip-path="url(#terminal-630786060-line-9)">
</text><text class="terminal-630786060-r2" x="24.4" y="264" textLength="390.4" clip-path="url(#terminal-630786060-line-10)">Other&#160;Python&#160;version&#160;(e.g.&#160;3.10)</text><text class="terminal-630786060-r4" x="695.4" y="264" textLength="48.8" clip-path="url(#terminal-630786060-line-10)">3.13</text><text class="terminal-630786060-r1" x="1342" y="264" textLength="12.2" clip-path="url(#terminal-630786060-line-10)">
</text><text class="terminal-630786060-r2" x="24.4" y="288.4" textLength="500.2" clip-path="url(#terminal-630786060-line-11)">Dataset&#160;storage&#160;(local&#160;or&#160;cloud&#160;provider)</text><text class="terminal-630786060-r4" x="695.4" y="288.4" textLength="48.8" clip-path="url(#terminal-630786060-line-11)">none</text><text class="terminal-630786060-r1" x="1342" y="288.4" textLength="12.2" clip-path="url(#terminal-630786060-line-11)">
</text><text class="terminal-630786060-r2" x="24.4" y="312.8" textLength="317.2" clip-path="url(#terminal-630786060-line-12)">Python&#160;environment&#160;manager</text><text class="terminal-630786060-r4" x="695.4" y="312.8" textLength="24.4" clip-path="url(#terminal-630786060-line-12)">uv</text><text class="terminal-630786060-r1" x="1342" y="312.8" textLength="12.2" clip-path="url(#terminal-630786060-line-12)">
</text><text class="terminal-630786060-r2" x="24.4" y="337.2" textLength="366" clip-path="url(#terminal-630786060-line-13)">Primary&#160;dependency&#160;file&#160;format</text><text class="terminal-630786060-r4" x="695.4" y="337.2" textLength="170.8" clip-path="url(#terminal-630786060-line-13)">pyproject.toml</text><text class="terminal-630786060-r1" x="1342" y="337.2" textLength="12.2" clip-path="url(#terminal-630786060-line-13)">
</text><text class="terminal-630786060-r2" x="24.4" y="361.6" textLength="549" clip-path="url(#terminal-630786060-line-14)">Include&#160;basic&#160;PyData&#160;packages&#160;(numpy,&#160;pandas,</text><text class="terminal-630786060-r4" x="695.4" y="361.6" textLength="48.8" clip-path="url(#terminal-630786060-line-14)">none</text><text class="terminal-630786060-r1" x="1342" y="361.6" textLength="12.2" clip-path="url(#terminal-630786060-line-14)">
</text><text class="terminal-630786060-r2" x="24.4" y="386" textLength="305" clip-path="url(#terminal-630786060-line-15)">scikit-learn,&#160;matplotlib)</text><text class="terminal-630786060-r1" x="1342" y="386" textLength="12.2" clip-path="url(#terminal-630786060-line-15)">
</text><text class="terminal-630786060-r2" x="24.4" y="410.4" textLength="207.4" clip-path="url(#terminal-630786060-line-16)">Testing&#160;framework</text><text class="terminal-630786060-r4" x="695.4" y="410.4" textLength="73.2" clip-path="url(#terminal-630786060-line-16)">pytest</text><text class="terminal-630786060-r1" x="1342" y="410.4" textLength="12.2" clip-path="url(#terminal-630786060-line-16)">
</text><text class="terminal-630786060-r2" x="24.4" y="434.8" textLength="341.6" clip-path="url(#terminal-630786060-line-17)">Linting&#160;and&#160;formatting&#160;tools</text><text class="terminal-630786060-r4" x="695.4" y="434.8" textLength="48.8" clip-path="url(#terminal-630786060-line-17)">ruff</text><text class="terminal-630786060-r1" x="1342" y="434.8" textLength="12.2" clip-path="url(#terminal-630786060-line-17)">
</text><text class="terminal-630786060-r2" x="24.4" y="459.2" textLength="231.8" clip-path="url(#terminal-630786060-line-18)">Open&#160;source&#160;license</text><text class="terminal-630786060-r4" x="695.4" y="459.2" textLength="36.6" clip-path="url(#terminal-630786060-line-18)">MIT</text><text class="terminal-630786060-r1" x="1342" y="459.2" textLength="12.2" clip-path="url(#terminal-630786060-line-18)">
</text><text class="terminal-630786060-r2" x="24.4" y="483.6" textLength="280.6" clip-path="url(#terminal-630786060-line-19)">Documentation&#160;framework</text><text class="terminal-630786060-r4" x="695.4" y="483.6" textLength="48.8" clip-path="url(#terminal-630786060-line-19)">none</text><text class="terminal-630786060-r1" x="1342" y="483.6" textLength="12.2" clip-path="url(#terminal-630786060-line-19)">
</text><text class="terminal-630786060-r2" x="24.4" y="508" textLength="622.2" clip-path="url(#terminal-630786060-line-20)">Register&#160;Jupyter&#160;kernel&#160;during&#160;environment&#160;creation</text><text class="terminal-630786060-r4" x="695.4" y="508" textLength="36.6" clip-path="url(#terminal-630786060-line-20)">Yes</text><text class="terminal-630786060-r1" x="1342" y="508" textLength="12.2" clip-path="url(#terminal-630786060-line-20)">
</text><text class="terminal-630786060-r2" x="24.4" y="532.4" textLength="585.6" clip-path="url(#terminal-630786060-line-21)">Enable&#160;.env&#160;file&#160;encryption&#160;with&#160;OpenSSL&#160;AES-256</text><text class="terminal-630786060-r4" x="695.4" y="532.4" textLength="36.6" clip-path="url(#terminal-630786060-line-21)">Yes</text><text class="terminal-630786060-r1" x="1342" y="532.4" textLength="12.2" clip-path="url(#terminal-630786060-line-21)">
</text><text class="terminal-630786060-r2" x="24.4" y="556.8" textLength="622.2" clip-path="url(#terminal-630786060-line-22)">Include&#160;Docker&#160;support&#160;with&#160;Dockerfile&#160;and&#160;Makefile</text><text class="terminal-630786060-r4" x="695.4" y="556.8" textLength="24.4" clip-path="url(#terminal-630786060-line-22)">No</text><text class="terminal-630786060-r1" x="1342" y="556.8" textLength="12.2" clip-path="url(#terminal-630786060-line-22)">
</text><text class="terminal-630786060-r2" x="24.4" y="581.2" textLength="85.4" clip-path="url(#terminal-630786060-line-23)">targets</text><text class="terminal-630786060-r1" x="1342" y="581.2" textLength="12.2" clip-path="url(#terminal-630786060-line-23)">
</text><text class="terminal-630786060-r2" x="24.4" y="605.6" textLength="585.6" clip-path="url(#terminal-630786060-line-24)">Enable&#160;publishing&#160;to&#160;a&#160;Python&#160;package&#160;repository</text><text class="terminal-630786060-r4" x="695.4" y="605.6" textLength="24.4" clip-path="url(#terminal-630786060-line-24)">No</text><text class="terminal-630786060-r1" x="1342" y="605.6" textLength="12.2" clip-path="url(#terminal-630786060-line-24)">
</text><text class="terminal-630786060-r2" x="24.4" y="630" textLength="634.4" clip-path="url(#terminal-630786060-line-25)">AI&#160;assistant&#160;support&#160;-&#160;project&#160;instructions&#160;file&#160;and</text><text class="terminal-630786060-r4" x="695.4" y="630" textLength="48.8" clip-path="url(#terminal-630786060-line-25)">none</text><text class="terminal-630786060-r1" x="1342" y="630" textLength="12.2" clip-path="url(#terminal-630786060-line-25)">
</text><text class="terminal-630786060-r2" x="24.4" y="654.4" textLength="305" clip-path="url(#terminal-630786060-line-26)">internal&#160;resources&#160;folder</text><text class="terminal-630786060-r1" x="1342" y="654.4" textLength="12.2" clip-path="url(#terminal-630786060-line-26)">
</text><text class="terminal-630786060-r2" x="24.4" y="678.8" textLength="597.8" clip-path="url(#terminal-630786060-line-27)">Scaffold&#160;an&#160;agents/&#160;folder&#160;for&#160;deployable&#160;agentic</text><text class="terminal-630786060-r4" x="695.4" y="678.8" textLength="24.4" clip-path="url(#terminal-630786060-line-27)">No</text><text class="terminal-630786060-r1" x="1342" y="678.8" textLength="12.2" clip-path="url(#terminal-630786060-line-27)">
</text><text class="terminal-630786060-r2" x="24.4" y="703.2" textLength="463.6" clip-path="url(#terminal-630786060-line-28)">resources&#160;(workflows,&#160;exported&#160;skills)</text><text class="terminal-630786060-r1" x="1342" y="703.2" textLength="12.2" clip-path="url(#terminal-630786060-line-28)">
</text><text class="terminal-630786060-r2" x="24.4" y="727.6" textLength="585.6" clip-path="url(#terminal-630786060-line-29)">Include&#160;GitHub&#160;Actions&#160;workflow&#160;running&#160;lint&#160;and</text><text class="terminal-630786060-r4" x="695.4" y="727.6" textLength="24.4" clip-path="url(#terminal-630786060-line-29)">No</text><text class="terminal-630786060-r1" x="1342" y="727.6" textLength="12.2" clip-path="url(#terminal-630786060-line-29)">
</text><text class="terminal-630786060-r2" x="24.4" y="752" textLength="158.6" clip-path="url(#terminal-630786060-line-30)">tests&#160;on&#160;push</text><text class="terminal-630786060-r1" x="1342" y="752" textLength="12.2" clip-path="url(#terminal-630786060-line-30)">
</text><text class="terminal-630786060-r2" x="24.4" y="776.4" textLength="512.4" clip-path="url(#terminal-630786060-line-31)">Initialize&#160;git&#160;repository&#160;with&#160;main&#160;branch</text><text class="terminal-630786060-r4" x="695.4" y="776.4" textLength="36.6" clip-path="url(#terminal-630786060-line-31)">Yes</text><text class="terminal-630786060-r1" x="1342" y="776.4" textLength="12.2" clip-path="url(#terminal-630786060-line-31)">
</text><text class="terminal-630786060-r2" x="24.4" y="800.8" textLength="488" clip-path="url(#terminal-630786060-line-32)">Path&#160;to&#160;custom&#160;config&#160;overlay&#160;(optional)</text><text class="terminal-630786060-r3" x="695.4" y="800.8" textLength="85.4" clip-path="url(#terminal-630786060-line-32)">not&#160;set</text><text class="terminal-630786060-r1" x="1342" y="800.8" textLength="12.2" clip-path="url(#terminal-630786060-line-32)">
</text><text class="terminal-630786060-r1" x="1342" y="825.2" textLength="12.2" clip-path="url(#terminal-630786060-line-33)">
</text><text class="terminal-630786060-r1" x="1342" y="849.6" textLength="12.2" clip-path="url(#terminal-630786060-line-34)">
</text><text class="terminal-630786060-r1" x="1342" y="874" textLength="12.2" clip-path="url(#terminal-630786060-line-35)">
</text><text class="terminal-630786060-r1" x="1342" y="898.4" textLength="12.2" clip-path="url(#terminal-630786060-line-36)">
</text><text class="terminal-630786060-r1" x="1342" y="922.8" textLength="12.2" clip-path="url(#terminal-630786060-line-37)">
</text><text class="terminal-630786060-r1" x="1342" y="947.2" textLength="12.2" clip-path="url(#terminal-630786060-line-38)">
</text><text class="terminal-630786060-r2" x="0" y="971.6" textLength="36.6" clip-path="url(#terminal-630786060-line-39)">&#160;⏎&#160;</text><text class="terminal-630786060-r6" x="36.6" y="971.6" textLength="85.4" clip-path="url(#terminal-630786060-line-39)">Create&#160;</text><text class="terminal-630786060-r2" x="122" y="971.6" textLength="61" clip-path="url(#terminal-630786060-line-39)">&#160;esc&#160;</text><text class="terminal-630786060-r6" x="183" y="971.6" textLength="61" clip-path="url(#terminal-630786060-line-39)">Back&#160;</text><text class="terminal-630786060-r2" x="244" y="971.6" textLength="48.8" clip-path="url(#terminal-630786060-line-39)">&#160;^x&#160;</text><text class="terminal-630786060-r6" x="292.8" y="971.6" textLength="61" clip-path="url(#terminal-630786060-line-39)">Quit&#160;</text>
    </g>
    </g>
</svg>
